<svg xmlns="http://www.w3.org/2000/svg" viewBox="200 100 150 100">
  <path d="M275.00018,115c-48.72899,0 -88.22698,19.58829 -88.22698,43.74226c0,24.16026 39.49799,43.74855 88.22698,43.74855c48.72934,0 88.22663,-19.58829 88.22663,-43.74855c0.00175,-24.15414 -39.49711,-43.74226 -88.22663,-43.74226zM275.00018,190.92085c-39.10175,0 -70.7951,-15.7025 -70.7951,-35.06802c0,-19.36534 31.69335,-35.06802 70.7951,-35.06802c39.10245,0 70.79825,15.70285 70.79825,35.06802c0.00018,19.3657 -31.69579,35.06802 -70.79825,35.06802zM228.77993,148.92338c0,-12.93109 20.68958,-23.42426 46.22024,-23.42426c25.52769,0 46.22356,10.49333 46.22356,23.42426c0,12.93093 -20.69587,23.42426 -46.22356,23.42426c-25.53084,0 -46.22024,-10.49316 -46.22024,-23.42426zM242.63291,147.30275c0,8.5069 15.1272,15.39928 33.78121,15.39928c18.65698,0 33.77823,-6.89239 33.77823,-15.39928c0,-8.50095 -15.12125,-15.39351 -33.77823,-15.39351c-18.65401,0 -33.78121,6.89256 -33.78121,15.39351zM275,153.23549c7.30734,0 13.23449,-3.13004 13.23449,-6.99084c0,-3.85485 -5.92715,-6.98524 -13.23449,-6.98524c-7.30979,0 -13.23396,3.13057 -13.23396,6.98524c0,3.86062 5.92417,6.99084 13.23396,6.99084z"
    style="fill: rgb(0, 0, 0);" data-paper-data='{"isPathIcon":true}' />
</svg>
